<svg xmlns="http://www.w3.org/2000/svg" viewBox="0 0 234.66 58.12"><title>Recurso 14</title><g id="Capa_2" data-name="Capa 2"><g id="Capa_1-2" data-name="Capa 1"><rect x="1.5" y="1.5" width="231.66" height="55.12" rx="11.57" fill="#fff" stroke="#1d1d1b" stroke-miterlimit="10" stroke-width="3"/><path d="M27.25,39.48H24.2V37h-.07A7.55,7.55,0,0,1,18,40c-5.26,0-8.58-4.46-8.58-9.41,0-5.11,3.24-9.5,8.62-9.5a7.77,7.77,0,0,1,6.14,3.05h.07V21.56h3.05ZM12.5,30.33c0,3.51,2.06,6.82,5.87,6.82s6-3.16,6-6.78-2.25-6.49-6-6.49C14.78,23.88,12.5,27,12.5,30.33Z" fill="#268437"/><path d="M45.29,26.89h-.08a6.9,6.9,0,0,0-5.57-3,6.41,6.41,0,0,0-6.33,6.64c0,3.54,2.45,6.63,6.18,6.63a7,7,0,0,0,5.84-3.09h.07v4.08A9.71,9.71,0,0,1,39.72,40a9.28,9.28,0,0,1-9.53-9.45,9.46,9.46,0,0,1,9.57-9.46,9.69,9.69,0,0,1,5.53,1.79Z" fill="#268437"/><path d="M52.42,39.48H49.37V24.38H47.5V21.56h1.87V15.11h3.05v6.45h3.2v2.82h-3.2Z" fill="#268437"/><path d="M62.64,14.81a2.18,2.18,0,0,1-4.35,0,2.18,2.18,0,1,1,4.35,0ZM62,39.48H58.94V21.56H62Z" fill="#268437"/><path d="M74.3,33.61l5.34-12h3.43L74.3,40.66l-8.8-19.1H69Z" fill="#268437"/><path d="M112.75,34.75l-.94,2a11.29,11.29,0,0,1-1.51,2.77l-1.57,2.08c-.51.37-.79.72-1.36,1.16A14.9,14.9,0,0,1,83.3,31.1,14.52,14.52,0,0,1,97.87,16.23a13.1,13.1,0,0,1,9,3.28,11.42,11.42,0,0,1,4.27,8.73,13.32,13.32,0,0,1-2.36,8c-1.83,2.4-4,3.36-5.88,3.28-1.06,0-1.83-.88-2.06-2.33a7,7,0,0,1-5.18,2.33c-3.36,0-6.41-3.09-6.41-7,0-4.57,3.05-9,7.78-9a6,6,0,0,1,5.07,2.67l.54-2.32h2.7l-1.9,9.72c-.27,1.26-.77,3.24.53,3.24,1.75,0,4.23-3.66,4.42-7.28C108.74,22.87,104,19,97.75,19,91,19,86.05,24.16,86.05,31.1c0,7.32,5.45,12.13,12.35,12.13a23.21,23.21,0,0,0,4.93-.52,9.1,9.1,0,0,0,4.53-2.55L109,39a10.93,10.93,0,0,0,1.78-2.43l1.41-2.64M96,36.86c3.39,0,4.77-2.86,5.11-5.57.38-3.05-1.26-5.14-3.89-5.14-3.09,0-5.34,3.2-5.34,6.14C91.88,34.88,93.33,36.86,96,36.86Z" fill="#268437"/><path d="M112.21,33.89c.41-.76,1-1.88,1.61-3.34s1.31-3.14,2-5a1.44,1.44,0,0,1-.44-1.06,3.1,3.1,0,0,1,.75-2.15c.5-.56.87-.84,1.1-.84s.51.14.55.42a3.8,3.8,0,0,1,.07.64,2.94,2.94,0,0,1-.25.86,3.54,3.54,0,0,0-.24.77,1.41,1.41,0,0,0,.69,1.12q.68.51,1.56,1.14A7.84,7.84,0,0,1,121.12,28a3.75,3.75,0,0,1,.68,2.31,7.11,7.11,0,0,1-.55,2.69c-.37.91-.73,1.77-1.1,2.59a5.37,5.37,0,0,0-.55,2.16,1.15,1.15,0,0,0,.4,1.05,1.58,1.58,0,0,0,.92.27,4.29,4.29,0,0,0,2.18-.66,12.18,12.18,0,0,0,2.18-1.67,18,18,0,0,0,1.89-2.14,9.42,9.42,0,0,0,1.23-2.09l.57.44a16.36,16.36,0,0,1-2.29,3.63,13.48,13.48,0,0,1-3.23,2.93,6.73,6.73,0,0,1-3.67,1.14,3.35,3.35,0,0,1-2.36-.79,2.69,2.69,0,0,1-.85-2.07,7.09,7.09,0,0,1,.61-2.77c.41-1,.82-1.93,1.21-2.88a6.73,6.73,0,0,0,.6-2.58,2.6,2.6,0,0,0-.82-2.09c-.54-.45-1.09-.87-1.65-1.25-.67,1.73-1.38,3.37-2.11,4.93s-1.19,2.84-1.66,3.63" fill="#268437"/><path d="M121.4,51.8a2.19,2.19,0,0,1-1.69-.64,2.25,2.25,0,0,1-.59-1.61A5.89,5.89,0,0,1,120.68,46a13.69,13.69,0,0,1,4-3.3c.41-.23.84-.45,1.3-.66s1-.45,1.52-.75a40.44,40.44,0,0,0,1.62-4.82q.75-2.7,1.32-6-.66,1.18-1.2,2.07c-.37.58-.66,1-.86,1.4l-.4-.66a21.75,21.75,0,0,0,1.34-2.92c.4-1,.78-2,1.15-3a12.54,12.54,0,0,1,1.12-2.29,1.55,1.55,0,0,1,1.23-.88.94.94,0,0,1,.77.37,1.53,1.53,0,0,1,.29,1,12.55,12.55,0,0,1-.25,1.87c-.16.92-.39,2.05-.7,3.39s-.68,2.78-1.12,4.33-.93,3.13-1.45,4.71c.85-.5,1.7-1,2.55-1.54a14,14,0,0,0,2.57-2.11A15.61,15.61,0,0,0,138,32.57l.57.31A12.75,12.75,0,0,1,136,37a14.45,14.45,0,0,1-3.11,2.4c-1.05.59-2,1.14-2.94,1.67a39.13,39.13,0,0,1-2.27,5.19,16,16,0,0,1-2.86,4A4.72,4.72,0,0,1,121.4,51.8ZM121,50.3c.59,0,1.43-.64,2.53-1.91a24.26,24.26,0,0,0,3.36-5.7,17.17,17.17,0,0,0-5,3.39,5,5,0,0,0-1.65,3.17,1.17,1.17,0,0,0,.22.81A.69.69,0,0,0,121,50.3Zm12.5-30a2.22,2.22,0,0,1-1.24-.35,1.2,1.2,0,0,1-.53-1.06,1.69,1.69,0,0,1,.51-1.19,3.6,3.6,0,0,1,1.26-.83,3.68,3.68,0,0,1,1.45-.31,1.66,1.66,0,0,1,1,.31,1.06,1.06,0,0,1,.42.92,2.25,2.25,0,0,1-.9,1.74A3,3,0,0,1,133.51,20.25Z" fill="#268437"/><path d="M140.28,40.89a3,3,0,0,1-2.68-1.17,4.92,4.92,0,0,1-.8-2.84,9.72,9.72,0,0,1,.44-2.81,13.86,13.86,0,0,1,1.17-2.73A8,8,0,0,1,140,29.27a2.75,2.75,0,0,1,1.82-.79,2,2,0,0,1,.47.06l.46.16a5.42,5.42,0,0,0-.95,1.3,16,16,0,0,0-1,2.15,24.33,24.33,0,0,0-.82,2.4,7.78,7.78,0,0,0-.33,2,3.32,3.32,0,0,0,.44,1.92,1.39,1.39,0,0,0,1.15.59,3.86,3.86,0,0,0,2.2-1A15.42,15.42,0,0,0,146,35.56,6.6,6.6,0,0,1,144,32.9a8.82,8.82,0,0,1-.68-3.37,7.27,7.27,0,0,1,.51-2.72,4.71,4.71,0,0,1,1.47-2,3.65,3.65,0,0,1,2.33-.77,2.64,2.64,0,0,1,2.42,1,4.41,4.41,0,0,1,.62,2.42,10.29,10.29,0,0,1-.84,3.8,22.46,22.46,0,0,1-2.11,4,3.42,3.42,0,0,0,1.67.44,5,5,0,0,0,1.59-.29,5.37,5.37,0,0,0,1.73-1,4.88,4.88,0,0,0,1.39-1.89l.53.44a5.68,5.68,0,0,1-2.49,2.93,6.53,6.53,0,0,1-3.06.86,5.7,5.7,0,0,1-1.1-.11,6,6,0,0,1-1-.33,16.29,16.29,0,0,1-3.28,3.3A5.82,5.82,0,0,1,140.28,40.89Zm6.47-6.47A18.66,18.66,0,0,0,148.57,31a8.84,8.84,0,0,0,.73-3.37,3.73,3.73,0,0,0-.37-1.87,1.11,1.11,0,0,0-1-.59c-.59,0-1.19.42-1.8,1.27a5.36,5.36,0,0,0-.93,3.22,9.2,9.2,0,0,0,.38,2.57A5.77,5.77,0,0,0,146.75,34.42Z" fill="#268437"/><path d="M167.52,40.36a3.11,3.11,0,0,1-2.31-.79,2.78,2.78,0,0,1-.77-2,6.21,6.21,0,0,1,.33-1.93c.22-.68.43-1.37.63-2.09a7.46,7.46,0,0,0,.31-2.09,2.3,2.3,0,0,0-.5-1.7,1.8,1.8,0,0,0-1.26-.46,4.45,4.45,0,0,0-2.77,1.12,16,16,0,0,0-2.73,2.86Q157.13,35,156,36.84c-.77,1.23-1.44,2.33-2,3.3a3.78,3.78,0,0,1-1.34-.24,2.26,2.26,0,0,1-1-.73,6.8,6.8,0,0,1,.46-1.36c.31-.77.67-1.7,1.08-2.82s.78-2.26,1.1-3.43a12.36,12.36,0,0,0,.49-3.21,2.83,2.83,0,0,1,.83-.62,2.54,2.54,0,0,1,1.19-.31A1,1,0,0,1,158,28.57a11.32,11.32,0,0,1-.4,2.35c-.26,1.1-.6,2.25-1,3.45a41.86,41.86,0,0,1,2.66-3.58,16.2,16.2,0,0,1,3.15-3,5.75,5.75,0,0,1,3.34-1.19,2.72,2.72,0,0,1,2.49,1.23,5.07,5.07,0,0,1,.77,2.73,7.19,7.19,0,0,1-.44,2.53c-.3.78-.6,1.53-.9,2.24a5.49,5.49,0,0,0-.47,2.18,1.8,1.8,0,0,0,.38,1.3,1.27,1.27,0,0,0,.94.37,3.22,3.22,0,0,0,2.2-1,14,14,0,0,0,2.14-2.62,27.11,27.11,0,0,0,1.82-3.21l.49.57a22.58,22.58,0,0,1-2.07,3.83,10.12,10.12,0,0,1-2.51,2.64A5.09,5.09,0,0,1,167.52,40.36Z" fill="#268437"/><path d="M177,40.62a3,3,0,0,1-2.55-1.08,4.16,4.16,0,0,1-.83-2.61,11.2,11.2,0,0,1,.37-2.56,31.5,31.5,0,0,1,1-3.23A23.74,23.74,0,0,1,176.38,28a10.7,10.7,0,0,1,1.74-2.44,2.61,2.61,0,0,1,1.8-1,1,1,0,0,1,.68.24.89.89,0,0,1,.29.73,4.31,4.31,0,0,1-.68,1.72c-.46.79-1,1.7-1.61,2.72a23.22,23.22,0,0,0-1.6,3.24,8.58,8.58,0,0,0-.69,3.23,3.05,3.05,0,0,0,.53,2.11,2.19,2.19,0,0,0,1.63.53,5,5,0,0,0,3.19-1.49,18,18,0,0,0,3.59-5.24l.39.44A12.69,12.69,0,0,1,182,38.6,7.66,7.66,0,0,1,177,40.62Zm5.29-20.15a2.34,2.34,0,0,1-1.26-.35,1.21,1.21,0,0,1-.55-1.1,1.94,1.94,0,0,1,1.08-1.61,4,4,0,0,1,2.13-.68,1.65,1.65,0,0,1,1.06.31,1.26,1.26,0,0,1,.39,1.05,2.15,2.15,0,0,1-.9,1.61A3,3,0,0,1,182.26,20.47Z" fill="#268437"/><path d="M188.06,40.8a2.93,2.93,0,0,1-2.7-1.3,5.89,5.89,0,0,1-.82-3.23,19.5,19.5,0,0,1,.8-5,54.74,54.74,0,0,1,2.08-6.12q1.31-3.21,2.84-6.27c1-2,2.06-3.89,3.08-5.56a32.12,32.12,0,0,1,2.84-4c.87-1,1.55-1.49,2-1.49a.91.91,0,0,1,.79.55,5,5,0,0,1,.48,1.32,6.08,6.08,0,0,1,.18,1.38,11.24,11.24,0,0,1-.59,3.11,36.43,36.43,0,0,1-1.68,4.26,45.23,45.23,0,0,1-2.55,4.76,46,46,0,0,1-3.21,4.59A24.56,24.56,0,0,1,188,31.56q-.27,1.19-.42,2.31A14.67,14.67,0,0,0,187.4,36c0,2.26.65,3.39,1.94,3.39a3.35,3.35,0,0,0,2.13-.9,11.83,11.83,0,0,0,2.07-2.31,20.64,20.64,0,0,0,1.74-3,37,37,0,0,1,1.32-4.91c.59-1.74,1.26-3.5,2-5.26S200.19,19.58,201,18s1.69-3.05,2.51-4.31a20,20,0,0,1,2.29-3c.7-.73,1.28-1.1,1.71-1.1a.91.91,0,0,1,.8.55,5.35,5.35,0,0,1,.48,1.32,6.08,6.08,0,0,1,.18,1.38,13.25,13.25,0,0,1-.75,3.81,33.1,33.1,0,0,1-2.13,5,37.71,37.71,0,0,1-3.35,5.3,25.55,25.55,0,0,1-4.38,4.6c-.17.79-.31,1.56-.41,2.31a14.67,14.67,0,0,0-.16,2.13c0,2.26.65,3.39,1.94,3.39a3.5,3.5,0,0,0,2.35-1.06,13,13,0,0,0,2.2-2.66,23.63,23.63,0,0,0,1.78-3.32l.66.35a22.43,22.43,0,0,1-3.82,5.92,6.11,6.11,0,0,1-4.45,2.18,2.94,2.94,0,0,1-2.9-1.59,7.3,7.3,0,0,1-.58-4,15.56,15.56,0,0,1-3.27,4.07A5.59,5.59,0,0,1,188.06,40.8Zm.31-10.74a27.55,27.55,0,0,0,3-3.54,48.66,48.66,0,0,0,2.71-4.16c.84-1.43,1.58-2.83,2.22-4.18a30.07,30.07,0,0,0,1.5-3.63,8.75,8.75,0,0,0,.53-2.48,1,1,0,0,0-.11-.58c-.08-.08-.14-.13-.2-.13-.24,0-.64.38-1.21,1.12a35.1,35.1,0,0,0-2,3c-.77,1.26-1.54,2.7-2.34,4.31s-1.54,3.3-2.26,5.06A53.85,53.85,0,0,0,188.37,30.06Zm10.43,0a30.07,30.07,0,0,0,3.54-4.27,40.11,40.11,0,0,0,2.79-4.66A31.73,31.73,0,0,0,207,16.86a10.13,10.13,0,0,0,.66-3,1,1,0,0,0-.11-.58.32.32,0,0,0-.19-.13c-.3,0-.79.48-1.48,1.43a35,35,0,0,0-2.33,3.85A57.64,57.64,0,0,0,201,23.86,60.69,60.69,0,0,0,198.8,30.06Z" fill="#268437"/><path d="M207.34,41.55a3.21,3.21,0,0,1-2.32-.91,3.62,3.62,0,0,1-.94-2.75,9.53,9.53,0,0,1,.7-3.41,17.34,17.34,0,0,1,1.94-3.6,20.27,20.27,0,0,1,2.79-3.26,13.9,13.9,0,0,1,3.3-2.35,7.56,7.56,0,0,1,3.46-.88,4.51,4.51,0,0,1,2.86.9,2.9,2.9,0,0,1,1.14,2.4,1.67,1.67,0,0,1-.59,1.49,2.75,2.75,0,0,1-1.57.4c.06-.24.11-.49.16-.77a5.64,5.64,0,0,0,.07-.77,3.07,3.07,0,0,0-.49-1.74,1.87,1.87,0,0,0-1.67-.73,4.52,4.52,0,0,0-2.51.86,11.84,11.84,0,0,0-2.46,2.29,19.83,19.83,0,0,0-3.57,6.4,9.68,9.68,0,0,0-.53,2.91c0,1.14.4,1.71,1.19,1.71a3.62,3.62,0,0,0,2.2-.94,17.3,17.3,0,0,0,2.44-2.42q1.26-1.49,2.4-3.06c.77-1.06,1.44-2,2-2.91.11-.17.19-.26.22-.26a5.44,5.44,0,0,1,.68.18,2.35,2.35,0,0,1,.73.35.69.69,0,0,1,.3.57,2.44,2.44,0,0,1-.39,1.08c-.27.45-.56,1-.88,1.56a19.57,19.57,0,0,0-.88,1.78,4.15,4.15,0,0,0-.4,1.7,2.66,2.66,0,0,0,.35,1.29,1.21,1.21,0,0,0,1.15.64q1.19,0,3.12-1.74a20.73,20.73,0,0,0,3.92-5.21l.44.44A15.75,15.75,0,0,1,223.35,37a12.46,12.46,0,0,1-3.1,2.82,6.22,6.22,0,0,1-3.24,1,2.85,2.85,0,0,1-2.39-1,3.27,3.27,0,0,1-.77-2.11,4.41,4.41,0,0,1,0-.6c0-.22.06-.44.09-.68a21.26,21.26,0,0,1-3.46,3.83A5,5,0,0,1,207.34,41.55Z" fill="#268437"/></g></g></svg>