<?xml version="1.0" encoding="utf-8"?>
<!-- Generator: Adobe Illustrator 23.0.5, SVG Export Plug-In . SVG Version: 6.00 Build 0)  -->
<svg version="1.1" id="Capa_1" xmlns="http://www.w3.org/2000/svg" xmlns:xlink="http://www.w3.org/1999/xlink" x="0px" y="0px"
	 viewBox="0 0 56.7 56.7" style="enable-background:new 0 0 56.7 56.7;" xml:space="preserve">
<style type="text/css">
	.st0{fill:#35A05C;}
</style>
<path d="M21.3,41.8"/>
<g>
	<path class="st0" d="M46.1,14.2c-0.3-0.7-0.5-1.4-0.9-2c0-0.2-0.1-0.4-0.2-0.6c-2-3.5-4.9-6.1-8.7-7.7c-0.9-0.4-1.8-0.8-2.8-0.9
		c-0.1,0-0.1,0-0.2,0c-0.2,0-0.3,0-0.5-0.1c0,0-0.1-0.1-0.1-0.1c-5.4-1-10.3,0.2-14.7,3.5c-1,0.8-2,1.6-2.7,2.7
		c-0.1,0.1-0.3,0.2-0.4,0.4c-1.4,1.8-2.5,3.8-3.1,6c-1.2,4-1,8,0.3,12c0.2,0.6,0.4,1.3,0.8,1.8c0.1,0.3,0.2,0.5,0.3,0.8
		c0.5,1.1,1.1,2.1,1.8,3.1c1.3,1.9,2.8,3.7,4.2,5.5c0.6,0.8,1.2,1.6,1.9,2.4c0.3,0.6,0.8,1.1,1.2,1.7c1.7,2.3,3.3,4.8,4.2,7.5
		c0.4,1,0.7,2.1,1.1,3.1c0.3,0.7,0.7,1.1,1.5,1.1c0.8,0,1.2-0.4,1.5-1.1c0.2-0.4,0.3-0.8,0.4-1.2c0.9-3,2.3-5.7,4-8.3
		c2.2-3.2,4.8-6.2,7.1-9.3c2.4-3.3,4.2-6.8,4.7-10.8C47.4,20.3,47.2,17.2,46.1,14.2z M35.1,24c-0.2,0.4-0.5,0.8-0.8,1.1
		c-0.3,0.3-0.6,0.7-0.9,1c-0.9,0.4-1.7,1-2.7,1.2c-2.8,0.7-5.6-0.5-7.2-2.6c-1.4-2-1.7-4.2-0.9-6.5c0.1-0.2,0.1-0.3,0.1-0.5l0,0
		c0.1-0.1,0.1-0.2,0.2-0.3c0.3-0.4,0.7-0.8,0.9-1.3c0,0,0.1,0,0.1-0.1c0,0,0.1-0.1,0.1-0.1c0,0,0.1-0.1,0.1-0.1c0,0,0.1-0.1,0.1-0.1
		c0,0,0,0,0,0l0,0c0.1,0,0.2-0.1,0.2-0.2l0,0c0,0,0.1-0.1,0.1-0.1l0,0c0.1,0,0.2-0.1,0.2-0.2c0.1-0.1,0.1-0.1,0.2-0.2
		c0.9-0.6,1.9-1.1,3-1.3c2.8-0.4,5.2,0.5,6.8,2.8C36.4,18.9,36.5,21.4,35.1,24z"/>
	<path class="st0" d="M23.4,15.7c-0.1-0.1-0.3-0.2-0.4-0.3C23.1,15.4,23.3,15.6,23.4,15.7z"/>
	<path class="st0" d="M23.4,15.7c-0.1-0.1-0.3-0.2-0.4-0.3C23.1,15.4,23.3,15.6,23.4,15.7z"/>
	<path class="st0" d="M23.4,15.7c-0.1-0.1-0.3-0.2-0.4-0.3C23.1,15.4,23.3,15.6,23.4,15.7z"/>
	<path class="st0" d="M33.3,3c-0.2,0-0.3,0-0.5-0.1C33,2.8,33.2,2.8,33.3,3z"/>
</g>
</svg>
