<?xml version="1.0" encoding="utf-8"?>
<!-- Generator: Adobe Illustrator 23.0.5, SVG Export Plug-In . SVG Version: 6.00 Build 0)  -->
<svg version="1.1" id="Capa_1" xmlns="http://www.w3.org/2000/svg" xmlns:xlink="http://www.w3.org/1999/xlink" x="0px" y="0px"
	 viewBox="0 0 56.7 56.7" style="enable-background:new 0 0 56.7 56.7;" xml:space="preserve">
<style type="text/css">
	.st0{fill:#35A05C;}
</style>
<g>
	<path class="st0" d="M36.9,50.7c0-5.7,0-11.4,0-17.1c2.1,0,3.6,0,5.7,0c0.5-2.6,0.5-4.7,1-7.2c-2.1,0-4.1,0-6.7,0
		c0-2.1,0-3.6,0-5.7c0-1,1-2.1,2.1-2.1c1.6,0,3.1,0,4.7,0c0-2.1,0-4.1,0-6.2c-2.6,0-5.2-0.5-7.8,0c-3.6,1-5.7,4.1-5.7,7.8
		c0,1.6,0,3.6,0,5.2c0,1,0,1.6-1,1c-1.6,0-3.1,0-4.7,0c0,2.1,0,4.1,0,6.7c2.1,0,3.6,0,5.7,0c0,5.7,0,11.4,0,17.6c-0.5,0-1,0-2.1,0
		c-6.2,0-12.4,0-19.1,0c-2.1,0-3.1-1-3.1-3.1c0-12.9,0-25.8,0-38.8c0-2.1,1-2.6,2.6-2.6c12.9,0,25.8,0,39.3,0c1.6,0,2.6,1,2.6,2.6
		c0,12.9,0,26.4,0,39.3c0,1.6-1,2.6-2.6,2.6C44.7,50.7,40.5,50.7,36.9,50.7z"/>
</g>
</svg>
