<?xml version="1.0" encoding="utf-8"?>
<!-- Generator: Adobe Illustrator 23.0.5, SVG Export Plug-In . SVG Version: 6.00 Build 0)  -->
<svg version="1.1" id="Capa_1" xmlns="http://www.w3.org/2000/svg" xmlns:xlink="http://www.w3.org/1999/xlink" x="0px" y="0px"
	 viewBox="0 0 56.7 56.7" style="enable-background:new 0 0 56.7 56.7;" xml:space="preserve">
<style type="text/css">
	.st0{fill:#FFFFFF;}
</style>
<g>
	<path class="st0" d="M38.1,7.2c0.5,0,1.5,0,2,0.5c4.9,1,8.3,4.9,8.8,9.3c0,1,0,2.4,0.5,3.4c0,5.4,0,11.2,0,16.6
		c0,2.4-0.5,4.4-1.5,6.3c-1.5,2.9-4.4,4.9-7.8,5.9c-1.5,0.5-2.9,0.5-4.4,0.5c-5.4,0-10.7,0-16.1,0c-4.4,0-8.3-2-10.3-5.9
		c-1.5-2-2-4.4-2-6.3c0-5.9,0-12.2,0-18.1c0-2.4,0.5-4.9,2-6.8c2.4-3.4,5.4-4.9,9.3-5.4c1,0,1.5,0,2.4,0c1,0,2.4,0,3.4,0l0,0
		c1.5,0,2.4,0,3.9,0l0,0C31.8,7.2,35.2,7.2,38.1,7.2z M28.8,11.1c-2.4,0-4.9,0-7.3,0c-1.5,0-2.4,0-3.9,0c-2,0.5-3.9,2-4.9,3.9
		c-1,1.5-1,2.9-1,4.9c0,4.9,0,10.3,0,15.1c0,1.5,0,2.9,0,3.9c0.5,2.9,2.4,5.4,5.4,5.9c1.5,0.5,2.9,0.5,3.9,0.5c4.4,0,8.8,0,12.7,0
		c1.5,0,3.4,0,4.9,0c2.4-0.5,4.4-1.5,5.9-3.4c1-1.5,1-2.9,1-4.9s0-3.9,0-5.9c0-3.9,0-8.3,0-12.2c0-1.5-0.5-3.4-1.5-4.4
		c-1.5-2.4-3.9-3.4-6.3-3.4C34.7,11.1,31.8,11.1,28.8,11.1z"/>
	<path class="st0" d="M28.3,7.2L28.3,7.2c-1.5,0-2.4,0-3.9,0l0,0C25.9,7.2,27.4,7.2,28.3,7.2z"/>
	<path class="st0" d="M17.6,28.2c0-5.9,4.9-10.7,10.7-10.7S39,22.4,39,28.2s-4.9,10.7-10.7,10.7S17.6,34,17.6,28.2z M28.3,35
		c3.9,0,6.8-2.9,6.8-6.8s-2.9-6.8-6.8-6.8c-3.4,0-6.8,2.9-6.8,6.8S24.4,35,28.3,35z"/>
	<path class="st0" d="M42.5,16.9c0,1.5-1,2.4-2.4,2.4c-1.5,0-2.9-1-2.4-2.4c0-1.5,1-2.4,2.4-2.4C41,14.5,42.5,15.9,42.5,16.9z"/>
</g>
</svg>
