<?xml version="1.0" encoding="utf-8"?>
<!-- Generator: Adobe Illustrator 23.0.5, SVG Export Plug-In . SVG Version: 6.00 Build 0)  -->
<svg version="1.1" id="Capa_1" xmlns="http://www.w3.org/2000/svg" xmlns:xlink="http://www.w3.org/1999/xlink" x="0px" y="0px"
	 viewBox="0 0 56.7 56.7" style="enable-background:new 0 0 56.7 56.7;" xml:space="preserve">
<style type="text/css">
	.st0{fill-rule:evenodd;clip-rule:evenodd;fill:#35A05C;}
</style>
<path d="M18.3,39.7"/>
<path class="st0" d="M5.1,15.6c0.5-2.8,2.8-4.7,5.7-4.7h34.9c2.8,0,5.2,1.9,5.7,4.7L28.2,29.8L5.1,15.6z M5.1,18.9v20.7l17-10.4
	L5.1,18.9z M24.4,30.7L5.6,42.5c0.9,1.9,2.8,3.3,5.2,3.3h34.9c2.4,0,4.2-1.4,5.2-3.3L31.9,30.7l-3.8,2.4L24.4,30.7L24.4,30.7z
	 M34.8,29.3l17,10.4V18.9L34.8,29.3L34.8,29.3z"/>
</svg>
