<?xml version="1.0" encoding="utf-8"?>
<!-- Generator: Adobe Illustrator 23.0.5, SVG Export Plug-In . SVG Version: 6.00 Build 0)  -->
<svg version="1.1" id="Capa_1" xmlns="http://www.w3.org/2000/svg" xmlns:xlink="http://www.w3.org/1999/xlink" x="0px" y="0px"
	 viewBox="0 0 56.7 56.7" style="enable-background:new 0 0 56.7 56.7;" xml:space="preserve">
<style type="text/css">
	.st0{fill:#35A05C;}
	.st1{font-family:'Impact';}
	.st2{font-size:12.2656px;}
</style>
<g>
	<path class="st0" d="M30.3,5.3c1.5,0.5,3.6,0.5,5.1,1c7.2,2.6,11.8,7.2,14.4,13.8v0.5c-1,0-2.1,0-3.6,0l-0.5-0.5
		c-1-2.6-1-2.6-4.6-2.6c0,0,0,0-0.5,0c0,1,0.5,2.1,0.5,3.6c-1,0-2.6,0-3.6,0c0.5-1,0-2.1,0-2.6c0-0.5-0.5-0.5-1-0.5
		c-5.6,0-10.8,0-16.4,0c-0.5-0.5-1,0-1,0.5c-0.5,0.5-0.5,1.5-0.5,2.6c-1,0-2.1,0-3.6,0c0-1,0.5-2.1,1-3.6c-1,0-2.1,0-3.1,0
		c0,0-0.5,0-0.5,0.5c-1,0.5-1.5,1.5-2.1,2.1c0,1-0.5,1-1.5,1s-1.5,0-2.6,0c0-0.5,0-1,0.5-1c3.6-8.2,9.7-13.3,19-14.9h0.5
		C27.8,5.3,28.8,5.3,30.3,5.3z M35.5,14c-2.1-2.6-4.1-5.1-7.7-5.1c-3.1,0-5.1,2.6-6.7,5.1C25.7,14,30.3,14,35.5,14z M38,11.4
		c1,2.6,1.5,3.1,3.1,2.6C40.6,13,39.6,12.5,38,11.4z M18,11.4C17,12.5,16,13,15,14C17.5,14,16.5,14.5,18,11.4z"/>
	<path class="st0" d="M26.2,51.4c-1,0-2.6-0.5-3.6-0.5C15,48.8,9.8,43.7,6.8,36.5c0-0.5,0-0.5-0.5-1c1,0,2.1,0,3.1,0L9.8,36
		c0,0,0,0.5,0.5,0.5c1,2.6,2.1,3.1,5.1,2.6c0-1-0.5-2.1-0.5-3.6c1,0,2.6,0,3.6,0c0.5,1,0.5,2.1,1,2.6c0,0.5,0.5,0.5,1,0.5
		c5.6,0,10.8,0,16.4,0c0.5,0,0.5-0.5,1-0.5c0.5-1,0.5-2.1,1-2.6c1,0,2.6,0,3.6,0c-1,1-1.5,2.1-1.5,3.6c1,0,2.6,0,3.6,0l0.5-0.5
		c0.5-0.5,0.5-1,0.5-1.5c0.5-1.5,1.5-2.1,3.1-1.5c0.5,0,1,0,1.5,0c-0.5,1-1,2.1-1.5,3.1c-4.1,7.7-9.7,11.8-18.5,12.8h-0.5
		C28.8,51.4,27.8,51.4,26.2,51.4z M21.1,42.7c1.5,3.1,4.6,5.6,7.7,5.1c2.6,0,5.6-2.6,6.7-5.1C30.3,42.7,25.7,42.7,21.1,42.7z
		 M41.6,42.7c-2.1-0.5-2.6,0-3.1,2.6C39.6,44.2,40.6,43.7,41.6,42.7z M15,42.7c1,1,2.1,1.5,3.1,2.6C16.5,42.2,17.5,42.7,15,42.7z"/>
	<path class="st0" d="M15,42.7"/>
	<path class="st0" d="M18,45.3"/>
</g>
<text transform="matrix(1.8375 0 0 1 4.5691 33.0663)" class="st0 st1 st2">RRSS</text>
</svg>
