<?xml version="1.0" encoding="utf-8"?>
<!-- Generator: Adobe Illustrator 23.0.5, SVG Export Plug-In . SVG Version: 6.00 Build 0)  -->
<svg version="1.1" id="Capa_1" xmlns="http://www.w3.org/2000/svg" xmlns:xlink="http://www.w3.org/1999/xlink" x="0px" y="0px"
	 viewBox="0 0 56.7 56.7" style="enable-background:new 0 0 56.7 56.7;" xml:space="preserve">
<style type="text/css">
	.st0{fill-rule:evenodd;clip-rule:evenodd;fill:#35A05C;}
</style>
<path class="st0" d="M10.3,6.8c2.2-2.2,5.4-2.2,7.1,0L18,7.3l5.4,6.5c1.1,1.6,1.1,3.3,1.1,4.4l-2.2,6.5c0,1.1,0,1.1,0.5,2.2L30,34
	c0.5,0.5,1.1,1.1,2.2,0.5l6.5-1.6c1.6-0.5,3.3,0,4.4,1.1l6.5,5.4c2.7,2.2,2.7,5.4,0.5,7.6l-3.3,2.7c-2.2,2.2-5.4,2.7-8.2,2.2
	C31,48.7,24,44.4,18.5,38.4S8.2,25.8,5.4,18.2c-1.1-2.7,0-6,2.2-8.2L10.3,6.8L10.3,6.8z"/>
</svg>
