<?xml version="1.0" encoding="utf-8"?>
<!-- Generator: Adobe Illustrator 23.0.5, SVG Export Plug-In . SVG Version: 6.00 Build 0)  -->
<svg version="1.1" id="Capa_1" xmlns="http://www.w3.org/2000/svg" xmlns:xlink="http://www.w3.org/1999/xlink" x="0px" y="0px"
	 viewBox="0 0 56.7 56.7" style="enable-background:new 0 0 56.7 56.7;" xml:space="preserve">
<style type="text/css">
	.st0{fill-rule:evenodd;clip-rule:evenodd;fill:#35A05C;}
	.st1{fill:#35A05C;}
	.st2{font-family:'Impact';}
	.st3{font-size:23.0402px;}
</style>
<g>
	<path class="st0" d="M11.6,8.8c2-2,5.1-2,6.6,0l0.5,0.5l5.1,6.1c1,1.5,1,3,1,4.1l-2,6.1c0,1,0,1,0.5,2l6.6,6.6c0.5,0.5,1,1,2,0.5
		l6.1-1.5c1.5-0.5,3,0,4.1,1l6.1,5.1c2.5,2,2.5,5.1,0.5,7.1l-3,2.5c-2,2-5.1,2.5-7.6,2c-7.1-3-13.7-7.1-18.7-12.7S9.6,26.5,7.1,19.4
		c-1-2.5,0-5.6,2-7.6L11.6,8.8L11.6,8.8z"/>
	<text transform="matrix(1 0 0 1 34.991 26.6972)" class="st1 st2 st3">2</text>
</g>
</svg>
