<?xml version="1.0" encoding="utf-8"?>
<!-- Generator: Adobe Illustrator 23.0.5, SVG Export Plug-In . SVG Version: 6.00 Build 0)  -->
<svg version="1.1" id="Capa_1" xmlns="http://www.w3.org/2000/svg" xmlns:xlink="http://www.w3.org/1999/xlink" x="0px" y="0px"
	 viewBox="0 0 56.7 56.7" style="enable-background:new 0 0 56.7 56.7;" xml:space="preserve">
<style type="text/css">
	.st0{fill:#35A05C;}
	.st1{fill:none;}
	.st2{font-family:'HelveticaLTStd-Bold';}
	.st3{font-size:15px;}
</style>
<g>
	<path class="st0" d="M30.4,4.3c1.6,0.5,3.7,0.5,5.3,1.1c7.5,2.7,12.3,7.5,15,14.4v0.5c-1.1,0-2.1,0-3.7,0l-0.5-0.5
		c-1.1-2.7-1.1-2.7-4.8-2.7c0,0,0,0-0.5,0c0,1.1,0.5,2.1,0.5,3.7c-1.1,0-2.7,0-3.7,0c0.5-1.1,0-2.1,0-2.7s-0.5-0.5-1.1-0.5
		c-5.9,0-11.2,0-17.1,0c-0.5-0.5-1.1,0-1.1,0.5c-0.5,0.5-0.5,1.6-0.5,2.7c-1.1,0-2.1,0-3.7,0c0-1.1,0.5-2.1,1.1-3.7
		c-1.1,0-2.1,0-3.2,0c0,0-0.5,0-0.5,0.5c-1.1,0.5-1.6,1.6-2.1,2.1c0,1.1-0.5,1.1-1.6,1.1s-1.6,0-2.7,0c0-0.5,0-1.1,0.5-1.1
		C9.5,11.2,15.9,5.9,25.5,4.3h0.5C27.7,4.3,28.8,4.3,30.4,4.3z M35.7,13.4c-2.1-2.7-4.3-5.3-8-5.3c-3.2,0-5.3,2.7-6.9,5.3
		C25.5,13.4,30.4,13.4,35.7,13.4z M38.4,10.7c1.1,2.7,1.6,3.2,3.2,2.7C41,12.3,40,11.8,38.4,10.7z M17.5,10.7
		c-1.1,1.1-2.1,1.6-3.2,2.7C17,13.4,15.9,13.9,17.5,10.7z"/>
	<path class="st0" d="M26.1,52.4c-1.1,0-2.7-0.5-3.7-0.5c-8-2.1-13.4-7.5-16.6-15c0-0.5,0-0.5-0.5-1.1c1.1,0,2.1,0,3.2,0L9,36.4
		c0,0,0,0.5,0.5,0.5c1.1,2.7,2.1,3.2,5.3,2.7c0-1.1-0.5-2.1-0.5-3.7c1.1,0,2.7,0,3.7,0c0.5,1.1,0.5,2.1,1.1,2.7
		c0,0.5,0.5,0.5,1.1,0.5c5.9,0,11.2,0,17.1,0c0.5,0,0.5-0.5,1.1-0.5c0.5-1.1,0.5-2.1,1.1-2.7c1.1,0,2.7,0,3.7,0
		c-1.1,1.1-1.6,2.1-1.6,3.7c1.1,0,2.7,0,3.7,0l0.5-0.5c0.5-0.5,0.5-1.1,0.5-1.6c0.5-1.6,1.6-2.1,3.2-1.6c0.5,0,1.1,0,1.6,0
		c-0.5,1.1-1.1,2.1-1.6,3.2c-4.3,8-10.2,12.3-19.2,13.4h-0.5C28.8,52.4,27.7,52.4,26.1,52.4z M20.7,43.3c1.6,3.2,4.8,5.9,8,5.3
		c2.7,0,5.9-2.7,6.9-5.3C30.4,43.3,25.5,43.3,20.7,43.3z M42.1,43.3c-2.1-0.5-2.7,0-3.2,2.7C40,44.9,41,44.4,42.1,43.3z M14.3,43.3
		c1.1,1.1,2.1,1.6,3.2,2.7C15.9,42.8,17,43.3,14.3,43.3z"/>
	<path class="st0" d="M14.3,43.3"/>
	<path class="st0" d="M17.5,46"/>
</g>
<rect x="3.8" y="22.9" class="st1" width="52" height="12.7"/>
<text transform="matrix(1 0 0 1 3.8082 33.6913)" class="st0 st2 st3">W W W</text>
</svg>
