<?xml version="1.0" encoding="utf-8"?>
<!-- Generator: Adobe Illustrator 23.0.5, SVG Export Plug-In . SVG Version: 6.00 Build 0)  -->
<svg version="1.1" id="Capa_1" xmlns="http://www.w3.org/2000/svg" xmlns:xlink="http://www.w3.org/1999/xlink" x="0px" y="0px"
	 viewBox="0 0 56.7 56.7" style="enable-background:new 0 0 56.7 56.7;" xml:space="preserve">
<style type="text/css">
	.st0{fill:#FFFFFF;}
</style>
<g>
	<path class="st0" d="M33.6,43c-1.3,0-2.8,0-4.2,0c-2.6,0-5.1-0.1-7.7-0.2c-1.7,0-3.3,0-5-0.1c-1.4,0-2.8-0.1-4.2-0.3
		c-0.6-0.1-1.3-0.2-1.9-0.4c-1.4-0.5-2.3-1.4-2.9-2.7C7.4,38.6,7.1,37.8,7,37c-0.2-0.9-0.3-1.7-0.4-2.6c-0.1-1-0.2-2-0.2-3.1
		c-0.1-1.6-0.1-3.2-0.1-4.8c0-0.9,0.1-1.8,0.1-2.7c0.1-0.9,0.1-1.8,0.2-2.7c0.1-1.1,0.3-2.2,0.5-3.3c0.2-1.2,0.7-2.3,1.6-3.2
		c0.7-0.6,1.4-1,2.3-1.3c0.5-0.1,1-0.2,1.5-0.2c1.7-0.1,3.5-0.2,5.2-0.3c1.3-0.1,2.6-0.1,3.9-0.1c3.5-0.1,6.9-0.1,10.4-0.1
		c2.3,0,4.6,0.1,6.9,0.1c1.1,0,2.2,0.1,3.3,0.1c1.1,0.1,2.2,0.2,3.2,0.5c1.5,0.4,2.6,1.4,3.3,2.7c0.4,0.8,0.7,1.6,0.8,2.5
		c0.2,0.9,0.3,1.9,0.4,2.8c0.1,1.1,0.2,2.1,0.2,3.2c0.1,1.1,0.1,2.2,0.1,3.3c0,1.3-0.1,2.5-0.1,3.8c-0.1,1.7-0.3,3.4-0.6,5
		c-0.2,1-0.4,2-0.9,2.9c-0.7,1.5-1.9,2.3-3.6,2.6c-0.6,0.1-1.2,0.1-1.8,0.2c-1.1,0.1-2.1,0.1-3.2,0.2c-0.8,0-1.6,0.1-2.4,0.1
		C36.3,42.9,35.1,42.9,33.6,43z M35.1,27.8c-3.8-2.2-7.5-4.3-11.2-6.4c-0.1,0.2-0.1,12.6,0,12.9C27.6,32.1,31.3,29.9,35.1,27.8z"/>
</g>
</svg>
